<?xml version="1.0" encoding="iso-8859-1"?>
<!-- Generator: Adobe Illustrator 19.1.0, SVG Export Plug-In . SVG Version: 6.00 Build 0)  -->
<svg xmlns="http://www.w3.org/2000/svg" xmlns:xlink="http://www.w3.org/1999/xlink" version="1.1" id="Capa_1" x="0px" y="0px" viewBox="0 0 487.001 487.001" style="enable-background:new 0 0 487.001 487.001;" xml:space="preserve" width="512px" height="512px">
<g>
	<g>
		<path d="M34.4,317.3V178.2h358.1v14c1.3-0.1,2.5-0.1,3.8-0.1h19.6c2.1,0,4.2,0.1,6.2,0.3v-73.5c0-30.3-24.8-55-55-55H55    c-30.3,0-55,24.8-55,55v197.7c0,30.3,24.8,55,55,55h244.2v-34.5H54.3C43.3,337.2,34.4,328.2,34.4,317.3z M34.4,118.2    c0-11,9-19.9,19.9-19.9h318.3c11,0,19.9,9,19.9,19.9v7.6H34.4V118.2z" fill="#14b8f5"/>
		<path d="M468,310.4c0.3-2.1,0.4-4.2,0.4-6.4v-33.8c0-28.9-23.5-52.5-52.5-52.5h-19.6c-28.9,0-52.5,23.5-52.5,52.5V304    c0,2.1,0.2,4.2,0.4,6.3c-11,2.4-19.4,12.2-19.4,23.9v64.5c0,13.4,11,24.4,24.4,24.4h113.4c13.4,0,24.4-11,24.4-24.4v-64.5    C487.1,322.6,478.9,312.9,468,310.4z M414,368.9c-1.1,0.8-1.4,1.6-1.4,2.9c0,5.8,0,11.5,0,17.3l0,0c0,3.7-3,6.7-6.7,6.7    s-6.7-3-6.7-6.7l0,0c0-5.8,0-11.6,0-17.4c0-1.2-0.2-2-1.3-2.7c-5.2-3.9-7-10.4-4.3-16.2c2.5-5.6,8.8-8.9,14.6-7.8    c6.5,1.3,11.1,6.6,11.1,13.1C419.5,362.5,417.6,366.2,414,368.9z M441.7,304.1c0,2-0.2,3.9-0.7,5.8h-69.9    c-0.4-1.9-0.7-3.8-0.7-5.8v-33.8c0-14.2,11.6-25.8,25.8-25.8h19.6c14.2,0,25.8,11.6,25.8,25.8v33.8H441.7z" fill="#14b8f5"/>
	</g>
</g>
<g>
</g>
<g>
</g>
<g>
</g>
<g>
</g>
<g>
</g>
<g>
</g>
<g>
</g>
<g>
</g>
<g>
</g>
<g>
</g>
<g>
</g>
<g>
</g>
<g>
</g>
<g>
</g>
<g>
</g>
</svg>
