<?xml version="1.0" encoding="utf-8"?>
<!-- Generator: Adobe Illustrator 16.0.0, SVG Export Plug-In . SVG Version: 6.00 Build 0)  -->
<!DOCTYPE svg PUBLIC "-//W3C//DTD SVG 1.1//EN" "http://www.w3.org/Graphics/SVG/1.1/DTD/svg11.dtd">
<svg xmlns="http://www.w3.org/2000/svg" xmlns:xlink="http://www.w3.org/1999/xlink" version="1.1" id="Layer_1" x="0px" y="0px" width="512px" height="512px" viewBox="0 0 300 300" enable-background="new 0 0 300 300" xml:space="preserve">
<g>
	<path d="M161.461,240.901c-0.804-5.485-5.492-9.729-11.22-9.729h-54.65c-5.716,0-10.403,4.236-11.214,9.729   c-5.789,1.819-10.038,7.175-10.038,13.576v4.008h97.16v-4.008C171.499,248.076,167.263,242.727,161.461,240.901z" fill="#14b8f5"/>
	<path d="M171.629,177.048c0.062-0.18,0.167-0.384,0.21-0.557l3.779-13.224c1.397-4.855-0.94-10.632-5.319-13.155l-17.194-9.939   c-4.236-2.449-10.699-1.521-14.064,1.973l-9.556,9.89c-2.845,2.938-5.95,8.313-7.069,12.24l-3.779,13.224   c-1.392,4.855,0.934,10.632,5.319,13.155l17.194,9.928c1.639,0.952,3.581,1.453,5.622,1.453c3.223,0,6.383-1.274,8.43-3.42   l9.575-9.884c0.123-0.137,0.253-0.322,0.383-0.464l22.983,13.272c0.557,2.598,2.122,4.973,4.608,6.401l28.049,16.193   c1.534,0.884,3.204,1.305,4.855,1.305c3.353,0,6.624-1.738,8.418-4.861c2.678-4.646,1.095-10.589-3.551-13.268l-28.055-16.198   c-2.48-1.429-5.319-1.614-7.843-0.792L171.629,177.048z" fill="#14b8f5"/>
	<path d="M144.118,123.77c-1.788,3.1-0.724,7.058,2.375,8.845l33.659,19.439c1.014,0.588,2.127,0.866,3.229,0.866   c2.238,0,4.416-1.163,5.615-3.241c1.788-3.104,0.724-7.057-2.375-8.851l-33.658-19.434   C149.87,119.613,145.912,120.665,144.118,123.77z" fill="#14b8f5"/>
	<path d="M107.627,199.933l33.652,19.433c1.026,0.588,2.14,0.866,3.241,0.866c2.238,0,4.409-1.163,5.615-3.241   c1.788-3.099,0.724-7.051-2.375-8.845l-33.658-19.433c-3.093-1.794-7.063-0.73-8.851,2.369   C103.464,194.181,104.521,198.145,107.627,199.933z" fill="#14b8f5"/>
	<path d="M154.23,65.421c-2.425-2.097-6.036-2.097-8.461,0l-97.624,84.202c-1.423,1.231-2.245,3.019-2.245,4.911v121.776   c0,3.582,2.9,6.477,6.481,6.477h195.236c3.581,0,6.481-2.895,6.481-6.477V154.534c0-1.893-0.822-3.68-2.245-4.911L154.23,65.421z    M241.143,269.829H58.857V157.497L150,78.879l91.143,78.618V269.829z" fill="#14b8f5"/>
	<path d="M287.994,131.755L158.449,20.345c-4.862-4.176-12.036-4.176-16.898,0L12.006,131.755   c-5.424,4.663-6.036,12.84-1.379,18.265c4.67,5.418,12.858,6.036,18.271,1.379L150,47.255l121.103,104.144   c2.443,2.097,5.449,3.136,8.437,3.136c3.643,0,7.268-1.534,9.834-4.515C294.03,144.595,293.418,136.418,287.994,131.755z" fill="#14b8f5"/>
</g>
</svg>
