<?xml version="1.0" encoding="iso-8859-1"?>
<!-- Generator: Adobe Illustrator 18.0.0, SVG Export Plug-In . SVG Version: 6.00 Build 0)  -->
<!DOCTYPE svg PUBLIC "-//W3C//DTD SVG 1.1//EN" "http://www.w3.org/Graphics/SVG/1.1/DTD/svg11.dtd">
<svg xmlns="http://www.w3.org/2000/svg" xmlns:xlink="http://www.w3.org/1999/xlink" version="1.1" id="Capa_1" x="0px" y="0px" viewBox="0 0 297 297" style="enable-background:new 0 0 297 297;" xml:space="preserve" width="512px" height="512px">
<g>
	<path d="M287.631,251.464h-6.09H15.459h-6.09c-5.174,0-9.369,4.195-9.369,9.369c0,5.174,4.195,9.369,9.369,9.369h15.459h247.344   h15.459c5.174,0,9.369-4.195,9.369-9.369C297,255.659,292.805,251.464,287.631,251.464z" fill="#14b8f5"/>
	<path d="M32.871,127.792v93.012h-5.988c-5.088,0-9.213,4.125-9.213,9.213v5.988h261.644v-5.988c0-5.088-4.125-9.213-9.213-9.213   h-5.987v-93.012h-48.829v93.012h-42.378v-93.012h-48.83v93.012H81.699v-93.012H32.871z" fill="#14b8f5"/>
	<path d="M18.583,112.333H278.4c0.006-0.001,0.011-0.001,0.018,0c5.089,0,9.213-4.125,9.213-9.213c0-3.721-2.206-6.928-5.382-8.382   L152.721,27.825c-2.652-1.369-5.805-1.369-8.457,0l-129.91,67.11c-3.776,1.951-5.727,6.231-4.723,10.361   C10.634,109.426,14.332,112.333,18.583,112.333z" fill="#14b8f5"/>
</g>
<g>
</g>
<g>
</g>
<g>
</g>
<g>
</g>
<g>
</g>
<g>
</g>
<g>
</g>
<g>
</g>
<g>
</g>
<g>
</g>
<g>
</g>
<g>
</g>
<g>
</g>
<g>
</g>
<g>
</g>
</svg>
