<?xml version="1.0" encoding="iso-8859-1"?>
<!-- Generator: Adobe Illustrator 16.0.0, SVG Export Plug-In . SVG Version: 6.00 Build 0)  -->
<!DOCTYPE svg PUBLIC "-//W3C//DTD SVG 1.1//EN" "http://www.w3.org/Graphics/SVG/1.1/DTD/svg11.dtd">
<svg xmlns="http://www.w3.org/2000/svg" xmlns:xlink="http://www.w3.org/1999/xlink" version="1.1" id="Capa_1" x="0px" y="0px" width="512px" height="512px" viewBox="0 0 800.207 800.207" style="enable-background:new 0 0 800.207 800.207;" xml:space="preserve">
<g>
	<g>
		<path d="M659.129,634.102H487.905v-35.438c58.154-31.049,97.736-92.324,97.736-162.854V267.895c0-4.984-0.204-9.922-0.593-14.807    c-6.586,4.699-13.779,9.181-21.587,13.408c-43.881,23.752-101.896,36.834-163.358,36.834c-61.465,0-119.48-13.082-163.358-36.834    c-7.806-4.227-14.998-8.709-21.583-13.404c-0.388,4.883-0.592,9.818-0.592,14.803v167.916c0,70.529,39.58,131.805,97.735,162.854    v35.438H141.078c-47.46,0-85.933,38.473-85.933,85.932v80.174h689.918v-80.174C745.062,672.574,706.59,634.102,659.129,634.102z" fill="#14b8f5"/>
		<path d="M400.104,170.041c-66.186,0-152.701,26.873-200.373,43.693c30.644,43.765,108.789,74.878,200.373,74.878    c91.663,0,169.865-31.168,200.452-74.991C553.291,196.805,467.487,170.041,400.104,170.041z" fill="#14b8f5"/>
		<path d="M400.104,0c-58.56,0-242.032,94.748-242.032,211.627c0,0,141.805-58.17,242.032-58.17    c102.319,0,242.032,58.17,242.032,58.17C642.136,94.749,457.849,0,400.104,0z M431.916,120.963l-31.812-23.115l-31.812,23.115    l12.151-37.399L348.63,60.451h39.322l12.152-37.397l12.15,37.397h39.322l-31.812,23.112L431.916,120.963z" fill="#14b8f5"/>
	</g>
</g>
<g>
</g>
<g>
</g>
<g>
</g>
<g>
</g>
<g>
</g>
<g>
</g>
<g>
</g>
<g>
</g>
<g>
</g>
<g>
</g>
<g>
</g>
<g>
</g>
<g>
</g>
<g>
</g>
<g>
</g>
</svg>
